<?xml version="1.0" encoding="UTF-8" standalone="no"?>
<!DOCTYPE svg PUBLIC "-//W3C//DTD SVG 1.1//EN"
 "http://www.w3.org/Graphics/SVG/1.1/DTD/svg11.dtd">
<!-- Generated by graphviz version 8.1.0 (20230707.0739)
 -->
<!-- Title: Database Structure Pages: 1 -->
<svg width="2635pt" height="1870pt"
 viewBox="0.00 0.00 2635.14 1870.00" xmlns="http://www.w3.org/2000/svg" xmlns:xlink="http://www.w3.org/1999/xlink">
<g id="graph0" class="graph" transform="scale(1 1) rotate(0) translate(4 1866)">
<title>Database Structure</title>
<polygon fill="white" stroke="none" points="-4,4 -4,-1866 2631.14,-1866 2631.14,4 -4,4"/>
<text text-anchor="middle" x="1313.57" y="-1844.7" font-family="Helvetica,sans-Serif" font-size="14.00">ER Diagram: laravel</text>
<!-- failed_jobs -->
<g id="node1" class="node">
<title>failed_jobs</title>
<polygon fill="#dddddd" stroke="none" points="484.64,-158 484.64,-180 599.64,-180 599.64,-158 484.64,-158"/>
<polygon fill="none" stroke="black" points="484.64,-158 484.64,-180 599.64,-180 599.64,-158 484.64,-158"/>
<text text-anchor="start" x="512.14" y="-163.7" font-family="Times,serif" font-size="14.00">failed_jobs</text>
<polygon fill="none" stroke="black" points="484.64,-136 484.64,-158 599.64,-158 599.64,-136 484.64,-136"/>
<text text-anchor="start" x="518.14" y="-142.7" font-family="Times,serif" font-size="14.00">id:</text>
<text text-anchor="start" x="532.39" y="-142.7" font-family="Helvetica,sans-Serif" font-style="oblique" font-size="10.00">BIGINT</text>
<polygon fill="none" stroke="black" points="484.64,-114 484.64,-136 599.64,-136 599.64,-114 484.64,-114"/>
<text text-anchor="start" x="503.89" y="-120.7" font-family="Times,serif" font-size="14.00">uuid:</text>
<text text-anchor="start" x="531.64" y="-120.7" font-family="Helvetica,sans-Serif" font-style="oblique" font-size="10.00">VARCHAR</text>
<polygon fill="none" stroke="black" points="484.64,-92 484.64,-114 599.64,-114 599.64,-92 484.64,-92"/>
<text text-anchor="start" x="497.89" y="-98.7" font-family="Times,serif" font-size="14.00">connection:</text>
<text text-anchor="start" x="560.89" y="-98.7" font-family="Helvetica,sans-Serif" font-style="oblique" font-size="10.00">TEXT</text>
<polygon fill="none" stroke="black" points="484.64,-70 484.64,-92 599.64,-92 599.64,-70 484.64,-70"/>
<text text-anchor="start" x="511.39" y="-76.7" font-family="Times,serif" font-size="14.00">queue:</text>
<text text-anchor="start" x="547.39" y="-76.7" font-family="Helvetica,sans-Serif" font-style="oblique" font-size="10.00">TEXT</text>
<polygon fill="none" stroke="black" points="484.64,-48 484.64,-70 599.64,-70 599.64,-48 484.64,-48"/>
<text text-anchor="start" x="492.27" y="-54.7" font-family="Times,serif" font-size="14.00">payload:</text>
<text text-anchor="start" x="538.77" y="-54.7" font-family="Helvetica,sans-Serif" font-style="oblique" font-size="10.00">LONGTEXT</text>
<polygon fill="none" stroke="black" points="484.64,-26 484.64,-48 599.64,-48 599.64,-26 484.64,-26"/>
<text text-anchor="start" x="487.39" y="-32.7" font-family="Times,serif" font-size="14.00">exception:</text>
<text text-anchor="start" x="543.64" y="-32.7" font-family="Helvetica,sans-Serif" font-style="oblique" font-size="10.00">LONGTEXT</text>
<polygon fill="none" stroke="black" points="484.64,-4 484.64,-26 599.64,-26 599.64,-4 484.64,-4"/>
<text text-anchor="start" x="487.77" y="-10.7" font-family="Times,serif" font-size="14.00">failed_at:</text>
<text text-anchor="start" x="538.77" y="-10.7" font-family="Helvetica,sans-Serif" font-style="oblique" font-size="10.00">TIMESTAMP</text>
</g>
<!-- migrations -->
<g id="node2" class="node">
<title>migrations</title>
<polygon fill="#dddddd" stroke="none" points="486.64,-272 486.64,-294 597.64,-294 597.64,-272 486.64,-272"/>
<polygon fill="none" stroke="black" points="486.64,-272 486.64,-294 597.64,-294 597.64,-272 486.64,-272"/>
<text text-anchor="start" x="512.89" y="-277.7" font-family="Times,serif" font-size="14.00">migrations</text>
<polygon fill="none" stroke="black" points="486.64,-250 486.64,-272 597.64,-272 597.64,-250 486.64,-250"/>
<text text-anchor="start" x="526.77" y="-256.7" font-family="Times,serif" font-size="14.00">id:</text>
<text text-anchor="start" x="541.02" y="-256.7" font-family="Helvetica,sans-Serif" font-style="oblique" font-size="10.00">INT</text>
<polygon fill="none" stroke="black" points="486.64,-228 486.64,-250 597.64,-250 597.64,-228 486.64,-228"/>
<text text-anchor="start" x="489.27" y="-234.7" font-family="Times,serif" font-size="14.00">migration:</text>
<text text-anchor="start" x="546.27" y="-234.7" font-family="Helvetica,sans-Serif" font-style="oblique" font-size="10.00">VARCHAR</text>
<polygon fill="none" stroke="black" points="486.64,-206 486.64,-228 597.64,-228 597.64,-206 486.64,-206"/>
<text text-anchor="start" x="517.39" y="-212.7" font-family="Times,serif" font-size="14.00">batch:</text>
<text text-anchor="start" x="550.39" y="-212.7" font-family="Helvetica,sans-Serif" font-style="oblique" font-size="10.00">INT</text>
</g>
<!-- oauth_access_tokens -->
<g id="node3" class="node">
<title>oauth_access_tokens</title>
<polygon fill="#dddddd" stroke="none" points="479.14,-518 479.14,-540 605.14,-540 605.14,-518 479.14,-518"/>
<polygon fill="none" stroke="black" points="479.14,-518 479.14,-540 605.14,-540 605.14,-518 479.14,-518"/>
<text text-anchor="start" x="485.52" y="-523.7" font-family="Times,serif" font-size="14.00">oauth_access_tokens</text>
<polygon fill="none" stroke="black" points="479.14,-496 479.14,-518 605.14,-518 605.14,-496 479.14,-496"/>
<text text-anchor="start" x="510.64" y="-502.7" font-family="Times,serif" font-size="14.00">id:</text>
<text text-anchor="start" x="524.89" y="-502.7" font-family="Helvetica,sans-Serif" font-style="oblique" font-size="10.00">VARCHAR</text>
<polygon fill="none" stroke="black" points="479.14,-474 479.14,-496 605.14,-496 605.14,-474 479.14,-474"/>
<text text-anchor="start" x="503.52" y="-480.7" font-family="Times,serif" font-size="14.00">user_id:</text>
<text text-anchor="start" x="547.02" y="-480.7" font-family="Helvetica,sans-Serif" font-style="oblique" font-size="10.00">BIGINT</text>
<polygon fill="none" stroke="black" points="479.14,-452 479.14,-474 605.14,-474 605.14,-452 479.14,-452"/>
<text text-anchor="start" x="499.77" y="-458.7" font-family="Times,serif" font-size="14.00">client_id:</text>
<text text-anchor="start" x="550.77" y="-458.7" font-family="Helvetica,sans-Serif" font-style="oblique" font-size="10.00">BIGINT</text>
<polygon fill="none" stroke="black" points="479.14,-430 479.14,-452 605.14,-452 605.14,-430 479.14,-430"/>
<text text-anchor="start" x="500.89" y="-436.7" font-family="Times,serif" font-size="14.00">name:</text>
<text text-anchor="start" x="534.64" y="-436.7" font-family="Helvetica,sans-Serif" font-style="oblique" font-size="10.00">VARCHAR</text>
<polygon fill="none" stroke="black" points="479.14,-408 479.14,-430 605.14,-430 605.14,-408 479.14,-408"/>
<text text-anchor="start" x="509.52" y="-414.7" font-family="Times,serif" font-size="14.00">scopes:</text>
<text text-anchor="start" x="549.27" y="-414.7" font-family="Helvetica,sans-Serif" font-style="oblique" font-size="10.00">TEXT</text>
<polygon fill="none" stroke="black" points="479.14,-386 479.14,-408 605.14,-408 605.14,-386 479.14,-386"/>
<text text-anchor="start" x="498.64" y="-392.7" font-family="Times,serif" font-size="14.00">revoked:</text>
<text text-anchor="start" x="545.89" y="-392.7" font-family="Helvetica,sans-Serif" font-style="oblique" font-size="10.00">TINYINT</text>
<polygon fill="none" stroke="black" points="479.14,-364 479.14,-386 605.14,-386 605.14,-364 479.14,-364"/>
<text text-anchor="start" x="483.64" y="-370.7" font-family="Times,serif" font-size="14.00">created_at:</text>
<text text-anchor="start" x="542.89" y="-370.7" font-family="Helvetica,sans-Serif" font-style="oblique" font-size="10.00">TIMESTAMP</text>
<polygon fill="none" stroke="black" points="479.14,-342 479.14,-364 605.14,-364 605.14,-342 479.14,-342"/>
<text text-anchor="start" x="481.77" y="-348.7" font-family="Times,serif" font-size="14.00">updated_at:</text>
<text text-anchor="start" x="544.77" y="-348.7" font-family="Helvetica,sans-Serif" font-style="oblique" font-size="10.00">TIMESTAMP</text>
<polygon fill="none" stroke="black" points="479.14,-320 479.14,-342 605.14,-342 605.14,-320 479.14,-320"/>
<text text-anchor="start" x="487.39" y="-326.7" font-family="Times,serif" font-size="14.00">expires_at:</text>
<text text-anchor="start" x="546.64" y="-326.7" font-family="Helvetica,sans-Serif" font-style="oblique" font-size="10.00">DATETIME</text>
</g>
<!-- oauth_auth_codes -->
<g id="node4" class="node">
<title>oauth_auth_codes</title>
<polygon fill="#dddddd" stroke="none" points="484.64,-698 484.64,-720 599.64,-720 599.64,-698 484.64,-698"/>
<polygon fill="none" stroke="black" points="484.64,-698 484.64,-720 599.64,-720 599.64,-698 484.64,-698"/>
<text text-anchor="start" x="493.39" y="-703.7" font-family="Times,serif" font-size="14.00">oauth_auth_codes</text>
<polygon fill="none" stroke="black" points="484.64,-676 484.64,-698 599.64,-698 599.64,-676 484.64,-676"/>
<text text-anchor="start" x="510.64" y="-682.7" font-family="Times,serif" font-size="14.00">id:</text>
<text text-anchor="start" x="524.89" y="-682.7" font-family="Helvetica,sans-Serif" font-style="oblique" font-size="10.00">VARCHAR</text>
<polygon fill="none" stroke="black" points="484.64,-654 484.64,-676 599.64,-676 599.64,-654 484.64,-654"/>
<text text-anchor="start" x="503.52" y="-660.7" font-family="Times,serif" font-size="14.00">user_id:</text>
<text text-anchor="start" x="547.02" y="-660.7" font-family="Helvetica,sans-Serif" font-style="oblique" font-size="10.00">BIGINT</text>
<polygon fill="none" stroke="black" points="484.64,-632 484.64,-654 599.64,-654 599.64,-632 484.64,-632"/>
<text text-anchor="start" x="499.77" y="-638.7" font-family="Times,serif" font-size="14.00">client_id:</text>
<text text-anchor="start" x="550.77" y="-638.7" font-family="Helvetica,sans-Serif" font-style="oblique" font-size="10.00">BIGINT</text>
<polygon fill="none" stroke="black" points="484.64,-610 484.64,-632 599.64,-632 599.64,-610 484.64,-610"/>
<text text-anchor="start" x="509.52" y="-616.7" font-family="Times,serif" font-size="14.00">scopes:</text>
<text text-anchor="start" x="549.27" y="-616.7" font-family="Helvetica,sans-Serif" font-style="oblique" font-size="10.00">TEXT</text>
<polygon fill="none" stroke="black" points="484.64,-588 484.64,-610 599.64,-610 599.64,-588 484.64,-588"/>
<text text-anchor="start" x="498.64" y="-594.7" font-family="Times,serif" font-size="14.00">revoked:</text>
<text text-anchor="start" x="545.89" y="-594.7" font-family="Helvetica,sans-Serif" font-style="oblique" font-size="10.00">TINYINT</text>
<polygon fill="none" stroke="black" points="484.64,-566 484.64,-588 599.64,-588 599.64,-566 484.64,-566"/>
<text text-anchor="start" x="487.39" y="-572.7" font-family="Times,serif" font-size="14.00">expires_at:</text>
<text text-anchor="start" x="546.64" y="-572.7" font-family="Helvetica,sans-Serif" font-style="oblique" font-size="10.00">DATETIME</text>
</g>
<!-- oauth_clients -->
<g id="node5" class="node">
<title>oauth_clients</title>
<polygon fill="#dddddd" stroke="none" points="455.64,-988 455.64,-1010 628.64,-1010 628.64,-988 455.64,-988"/>
<polygon fill="none" stroke="black" points="455.64,-988 455.64,-1010 628.64,-1010 628.64,-988 455.64,-988"/>
<text text-anchor="start" x="506.14" y="-993.7" font-family="Times,serif" font-size="14.00">oauth_clients</text>
<polygon fill="none" stroke="black" points="455.64,-966 455.64,-988 628.64,-988 628.64,-966 455.64,-966"/>
<text text-anchor="start" x="518.14" y="-972.7" font-family="Times,serif" font-size="14.00">id:</text>
<text text-anchor="start" x="532.39" y="-972.7" font-family="Helvetica,sans-Serif" font-style="oblique" font-size="10.00">BIGINT</text>
<polygon fill="none" stroke="black" points="455.64,-944 455.64,-966 628.64,-966 628.64,-944 455.64,-944"/>
<text text-anchor="start" x="503.52" y="-950.7" font-family="Times,serif" font-size="14.00">user_id:</text>
<text text-anchor="start" x="547.02" y="-950.7" font-family="Helvetica,sans-Serif" font-style="oblique" font-size="10.00">BIGINT</text>
<polygon fill="none" stroke="black" points="455.64,-922 455.64,-944 628.64,-944 628.64,-922 455.64,-922"/>
<text text-anchor="start" x="500.89" y="-928.7" font-family="Times,serif" font-size="14.00">name:</text>
<text text-anchor="start" x="534.64" y="-928.7" font-family="Helvetica,sans-Serif" font-style="oblique" font-size="10.00">VARCHAR</text>
<polygon fill="none" stroke="black" points="455.64,-900 455.64,-922 628.64,-922 628.64,-900 455.64,-900"/>
<text text-anchor="start" x="500.14" y="-906.7" font-family="Times,serif" font-size="14.00">secret:</text>
<text text-anchor="start" x="535.39" y="-906.7" font-family="Helvetica,sans-Serif" font-style="oblique" font-size="10.00">VARCHAR</text>
<polygon fill="none" stroke="black" points="455.64,-878 455.64,-900 628.64,-900 628.64,-878 455.64,-878"/>
<text text-anchor="start" x="493.02" y="-884.7" font-family="Times,serif" font-size="14.00">provider:</text>
<text text-anchor="start" x="542.52" y="-884.7" font-family="Helvetica,sans-Serif" font-style="oblique" font-size="10.00">VARCHAR</text>
<polygon fill="none" stroke="black" points="455.64,-856 455.64,-878 628.64,-878 628.64,-856 455.64,-856"/>
<text text-anchor="start" x="506.89" y="-862.7" font-family="Times,serif" font-size="14.00">redirect:</text>
<text text-anchor="start" x="551.89" y="-862.7" font-family="Helvetica,sans-Serif" font-style="oblique" font-size="10.00">TEXT</text>
<polygon fill="none" stroke="black" points="455.64,-834 455.64,-856 628.64,-856 628.64,-834 455.64,-834"/>
<text text-anchor="start" x="458.52" y="-840.7" font-family="Times,serif" font-size="14.00">personal_access_client:</text>
<text text-anchor="start" x="586.02" y="-840.7" font-family="Helvetica,sans-Serif" font-style="oblique" font-size="10.00">TINYINT</text>
<polygon fill="none" stroke="black" points="455.64,-812 455.64,-834 628.64,-834 628.64,-812 455.64,-812"/>
<text text-anchor="start" x="476.52" y="-818.7" font-family="Times,serif" font-size="14.00">password_client:</text>
<text text-anchor="start" x="568.02" y="-818.7" font-family="Helvetica,sans-Serif" font-style="oblique" font-size="10.00">TINYINT</text>
<polygon fill="none" stroke="black" points="455.64,-790 455.64,-812 628.64,-812 628.64,-790 455.64,-790"/>
<text text-anchor="start" x="498.64" y="-796.7" font-family="Times,serif" font-size="14.00">revoked:</text>
<text text-anchor="start" x="545.89" y="-796.7" font-family="Helvetica,sans-Serif" font-style="oblique" font-size="10.00">TINYINT</text>
<polygon fill="none" stroke="black" points="455.64,-768 455.64,-790 628.64,-790 628.64,-768 455.64,-768"/>
<text text-anchor="start" x="483.64" y="-774.7" font-family="Times,serif" font-size="14.00">created_at:</text>
<text text-anchor="start" x="542.89" y="-774.7" font-family="Helvetica,sans-Serif" font-style="oblique" font-size="10.00">TIMESTAMP</text>
<polygon fill="none" stroke="black" points="455.64,-746 455.64,-768 628.64,-768 628.64,-746 455.64,-746"/>
<text text-anchor="start" x="481.77" y="-752.7" font-family="Times,serif" font-size="14.00">updated_at:</text>
<text text-anchor="start" x="544.77" y="-752.7" font-family="Helvetica,sans-Serif" font-style="oblique" font-size="10.00">TIMESTAMP</text>
</g>
<!-- oauth_personal_access_clients -->
<g id="node6" class="node">
<title>oauth_personal_access_clients</title>
<polygon fill="#dddddd" stroke="none" points="456.64,-1124 456.64,-1146 627.64,-1146 627.64,-1124 456.64,-1124"/>
<polygon fill="none" stroke="black" points="456.64,-1124 456.64,-1146 627.64,-1146 627.64,-1124 456.64,-1124"/>
<text text-anchor="start" x="459.27" y="-1129.7" font-family="Times,serif" font-size="14.00">oauth_personal_access_clients</text>
<polygon fill="none" stroke="black" points="456.64,-1102 456.64,-1124 627.64,-1124 627.64,-1102 456.64,-1102"/>
<text text-anchor="start" x="518.14" y="-1108.7" font-family="Times,serif" font-size="14.00">id:</text>
<text text-anchor="start" x="532.39" y="-1108.7" font-family="Helvetica,sans-Serif" font-style="oblique" font-size="10.00">BIGINT</text>
<polygon fill="none" stroke="black" points="456.64,-1080 456.64,-1102 627.64,-1102 627.64,-1080 456.64,-1080"/>
<text text-anchor="start" x="499.77" y="-1086.7" font-family="Times,serif" font-size="14.00">client_id:</text>
<text text-anchor="start" x="550.77" y="-1086.7" font-family="Helvetica,sans-Serif" font-style="oblique" font-size="10.00">BIGINT</text>
<polygon fill="none" stroke="black" points="456.64,-1058 456.64,-1080 627.64,-1080 627.64,-1058 456.64,-1058"/>
<text text-anchor="start" x="483.64" y="-1064.7" font-family="Times,serif" font-size="14.00">created_at:</text>
<text text-anchor="start" x="542.89" y="-1064.7" font-family="Helvetica,sans-Serif" font-style="oblique" font-size="10.00">TIMESTAMP</text>
<polygon fill="none" stroke="black" points="456.64,-1036 456.64,-1058 627.64,-1058 627.64,-1036 456.64,-1036"/>
<text text-anchor="start" x="481.77" y="-1042.7" font-family="Times,serif" font-size="14.00">updated_at:</text>
<text text-anchor="start" x="544.77" y="-1042.7" font-family="Helvetica,sans-Serif" font-style="oblique" font-size="10.00">TIMESTAMP</text>
</g>
<!-- oauth_refresh_tokens -->
<g id="node7" class="node">
<title>oauth_refresh_tokens</title>
<polygon fill="#dddddd" stroke="none" points="468.64,-1260 468.64,-1282 615.64,-1282 615.64,-1260 468.64,-1260"/>
<polygon fill="none" stroke="black" points="468.64,-1260 468.64,-1282 615.64,-1282 615.64,-1260 468.64,-1260"/>
<text text-anchor="start" x="484.02" y="-1265.7" font-family="Times,serif" font-size="14.00">oauth_refresh_tokens</text>
<polygon fill="none" stroke="black" points="468.64,-1238 468.64,-1260 615.64,-1260 615.64,-1238 468.64,-1238"/>
<text text-anchor="start" x="510.64" y="-1244.7" font-family="Times,serif" font-size="14.00">id:</text>
<text text-anchor="start" x="524.89" y="-1244.7" font-family="Helvetica,sans-Serif" font-style="oblique" font-size="10.00">VARCHAR</text>
<polygon fill="none" stroke="black" points="468.64,-1216 468.64,-1238 615.64,-1238 615.64,-1216 468.64,-1216"/>
<text text-anchor="start" x="471.64" y="-1222.7" font-family="Times,serif" font-size="14.00">access_token_id:</text>
<text text-anchor="start" x="563.89" y="-1222.7" font-family="Helvetica,sans-Serif" font-style="oblique" font-size="10.00">VARCHAR</text>
<polygon fill="none" stroke="black" points="468.64,-1194 468.64,-1216 615.64,-1216 615.64,-1194 468.64,-1194"/>
<text text-anchor="start" x="498.64" y="-1200.7" font-family="Times,serif" font-size="14.00">revoked:</text>
<text text-anchor="start" x="545.89" y="-1200.7" font-family="Helvetica,sans-Serif" font-style="oblique" font-size="10.00">TINYINT</text>
<polygon fill="none" stroke="black" points="468.64,-1172 468.64,-1194 615.64,-1194 615.64,-1172 468.64,-1172"/>
<text text-anchor="start" x="487.39" y="-1178.7" font-family="Times,serif" font-size="14.00">expires_at:</text>
<text text-anchor="start" x="546.64" y="-1178.7" font-family="Helvetica,sans-Serif" font-style="oblique" font-size="10.00">DATETIME</text>
</g>
<!-- password_reset_tokens -->
<g id="node8" class="node">
<title>password_reset_tokens</title>
<polygon fill="#dddddd" stroke="none" points="476.64,-1374 476.64,-1396 607.64,-1396 607.64,-1374 476.64,-1374"/>
<polygon fill="none" stroke="black" points="476.64,-1374 476.64,-1396 607.64,-1396 607.64,-1374 476.64,-1374"/>
<text text-anchor="start" x="479.52" y="-1379.7" font-family="Times,serif" font-size="14.00">password_reset_tokens</text>
<polygon fill="none" stroke="black" points="476.64,-1352 476.64,-1374 607.64,-1374 607.64,-1352 476.64,-1352"/>
<text text-anchor="start" x="500.52" y="-1358.7" font-family="Times,serif" font-size="14.00">email:</text>
<text text-anchor="start" x="535.02" y="-1358.7" font-family="Helvetica,sans-Serif" font-style="oblique" font-size="10.00">VARCHAR</text>
<polygon fill="none" stroke="black" points="476.64,-1330 476.64,-1352 607.64,-1352 607.64,-1330 476.64,-1330"/>
<text text-anchor="start" x="500.89" y="-1336.7" font-family="Times,serif" font-size="14.00">token:</text>
<text text-anchor="start" x="534.64" y="-1336.7" font-family="Helvetica,sans-Serif" font-style="oblique" font-size="10.00">VARCHAR</text>
<polygon fill="none" stroke="black" points="476.64,-1308 476.64,-1330 607.64,-1330 607.64,-1308 476.64,-1308"/>
<text text-anchor="start" x="483.64" y="-1314.7" font-family="Times,serif" font-size="14.00">created_at:</text>
<text text-anchor="start" x="542.89" y="-1314.7" font-family="Helvetica,sans-Serif" font-style="oblique" font-size="10.00">TIMESTAMP</text>
</g>
<!-- personal_access_tokens -->
<g id="node9" class="node">
<title>personal_access_tokens</title>
<polygon fill="#dddddd" stroke="none" points="471.64,-1642 471.64,-1664 612.64,-1664 612.64,-1642 471.64,-1642"/>
<polygon fill="none" stroke="black" points="471.64,-1642 471.64,-1664 612.64,-1664 612.64,-1642 471.64,-1642"/>
<text text-anchor="start" x="477.64" y="-1647.7" font-family="Times,serif" font-size="14.00">personal_access_tokens</text>
<polygon fill="none" stroke="black" points="471.64,-1620 471.64,-1642 612.64,-1642 612.64,-1620 471.64,-1620"/>
<text text-anchor="start" x="518.14" y="-1626.7" font-family="Times,serif" font-size="14.00">id:</text>
<text text-anchor="start" x="532.39" y="-1626.7" font-family="Helvetica,sans-Serif" font-style="oblique" font-size="10.00">BIGINT</text>
<polygon fill="none" stroke="black" points="471.64,-1598 471.64,-1620 612.64,-1620 612.64,-1598 471.64,-1598"/>
<text text-anchor="start" x="474.64" y="-1604.7" font-family="Times,serif" font-size="14.00">tokenable_type:</text>
<text text-anchor="start" x="560.89" y="-1604.7" font-family="Helvetica,sans-Serif" font-style="oblique" font-size="10.00">VARCHAR</text>
<polygon fill="none" stroke="black" points="471.64,-1576 471.64,-1598 612.64,-1598 612.64,-1576 471.64,-1576"/>
<text text-anchor="start" x="488.52" y="-1582.7" font-family="Times,serif" font-size="14.00">tokenable_id:</text>
<text text-anchor="start" x="562.02" y="-1582.7" font-family="Helvetica,sans-Serif" font-style="oblique" font-size="10.00">BIGINT</text>
<polygon fill="none" stroke="black" points="471.64,-1554 471.64,-1576 612.64,-1576 612.64,-1554 471.64,-1554"/>
<text text-anchor="start" x="500.89" y="-1560.7" font-family="Times,serif" font-size="14.00">name:</text>
<text text-anchor="start" x="534.64" y="-1560.7" font-family="Helvetica,sans-Serif" font-style="oblique" font-size="10.00">VARCHAR</text>
<polygon fill="none" stroke="black" points="471.64,-1532 471.64,-1554 612.64,-1554 612.64,-1532 471.64,-1532"/>
<text text-anchor="start" x="500.89" y="-1538.7" font-family="Times,serif" font-size="14.00">token:</text>
<text text-anchor="start" x="534.64" y="-1538.7" font-family="Helvetica,sans-Serif" font-style="oblique" font-size="10.00">VARCHAR</text>
<polygon fill="none" stroke="black" points="471.64,-1510 471.64,-1532 612.64,-1532 612.64,-1510 471.64,-1510"/>
<text text-anchor="start" x="506.14" y="-1516.7" font-family="Times,serif" font-size="14.00">abilities:</text>
<text text-anchor="start" x="552.64" y="-1516.7" font-family="Helvetica,sans-Serif" font-style="oblique" font-size="10.00">TEXT</text>
<polygon fill="none" stroke="black" points="471.64,-1488 471.64,-1510 612.64,-1510 612.64,-1488 471.64,-1488"/>
<text text-anchor="start" x="478.02" y="-1494.7" font-family="Times,serif" font-size="14.00">last_used_at:</text>
<text text-anchor="start" x="548.52" y="-1494.7" font-family="Helvetica,sans-Serif" font-style="oblique" font-size="10.00">TIMESTAMP</text>
<polygon fill="none" stroke="black" points="471.64,-1466 471.64,-1488 612.64,-1488 612.64,-1466 471.64,-1466"/>
<text text-anchor="start" x="483.64" y="-1472.7" font-family="Times,serif" font-size="14.00">expires_at:</text>
<text text-anchor="start" x="542.89" y="-1472.7" font-family="Helvetica,sans-Serif" font-style="oblique" font-size="10.00">TIMESTAMP</text>
<polygon fill="none" stroke="black" points="471.64,-1444 471.64,-1466 612.64,-1466 612.64,-1444 471.64,-1444"/>
<text text-anchor="start" x="483.64" y="-1450.7" font-family="Times,serif" font-size="14.00">created_at:</text>
<text text-anchor="start" x="542.89" y="-1450.7" font-family="Helvetica,sans-Serif" font-style="oblique" font-size="10.00">TIMESTAMP</text>
<polygon fill="none" stroke="black" points="471.64,-1422 471.64,-1444 612.64,-1444 612.64,-1422 471.64,-1422"/>
<text text-anchor="start" x="481.77" y="-1428.7" font-family="Times,serif" font-size="14.00">updated_at:</text>
<text text-anchor="start" x="544.77" y="-1428.7" font-family="Helvetica,sans-Serif" font-style="oblique" font-size="10.00">TIMESTAMP</text>
</g>
<!-- stories -->
<g id="node10" class="node">
<title>stories</title>
<polygon fill="#dddddd" stroke="none" points="2051.14,-1813 2051.14,-1835 2177.14,-1835 2177.14,-1813 2051.14,-1813"/>
<polygon fill="none" stroke="black" points="2051.14,-1813 2051.14,-1835 2177.14,-1835 2177.14,-1813 2051.14,-1813"/>
<text text-anchor="start" x="2096.52" y="-1818.7" font-family="Times,serif" font-size="14.00">stories</text>
<polygon fill="none" stroke="black" points="2051.14,-1791 2051.14,-1813 2177.14,-1813 2177.14,-1791 2051.14,-1791"/>
<text text-anchor="start" x="2090.14" y="-1797.7" font-family="Times,serif" font-size="14.00">id:</text>
<text text-anchor="start" x="2104.39" y="-1797.7" font-family="Helvetica,sans-Serif" font-style="oblique" font-size="10.00">BIGINT</text>
<polygon fill="none" stroke="black" points="2051.14,-1769 2051.14,-1791 2177.14,-1791 2177.14,-1769 2051.14,-1769"/>
<text text-anchor="start" x="2077.39" y="-1775.7" font-family="Times,serif" font-size="14.00">title:</text>
<text text-anchor="start" x="2102.14" y="-1775.7" font-family="Helvetica,sans-Serif" font-style="oblique" font-size="10.00">VARCHAR</text>
<polygon fill="none" stroke="black" points="2051.14,-1747 2051.14,-1769 2177.14,-1769 2177.14,-1747 2051.14,-1747"/>
<text text-anchor="start" x="2079.64" y="-1753.7" font-family="Times,serif" font-size="14.00">content:</text>
<text text-anchor="start" x="2123.14" y="-1753.7" font-family="Helvetica,sans-Serif" font-style="oblique" font-size="10.00">TEXT</text>
<polygon fill="none" stroke="black" points="2051.14,-1725 2051.14,-1747 2177.14,-1747 2177.14,-1725 2051.14,-1725"/>
<text text-anchor="start" x="2081.89" y="-1731.7" font-family="Times,serif" font-size="14.00">status:</text>
<text text-anchor="start" x="2116.39" y="-1731.7" font-family="Helvetica,sans-Serif" font-style="oblique" font-size="10.00">ENUM</text>
<polygon fill="none" stroke="black" points="2051.14,-1703 2051.14,-1725 2177.14,-1725 2177.14,-1703 2051.14,-1703"/>
<text text-anchor="start" x="2055.64" y="-1709.7" font-family="Times,serif" font-size="14.00">created_at:</text>
<text text-anchor="start" x="2114.89" y="-1709.7" font-family="Helvetica,sans-Serif" font-style="oblique" font-size="10.00">TIMESTAMP</text>
<polygon fill="none" stroke="black" points="2051.14,-1681 2051.14,-1703 2177.14,-1703 2177.14,-1681 2051.14,-1681"/>
<text text-anchor="start" x="2053.77" y="-1687.7" font-family="Times,serif" font-size="14.00">updated_at:</text>
<text text-anchor="start" x="2116.77" y="-1687.7" font-family="Helvetica,sans-Serif" font-style="oblique" font-size="10.00">TIMESTAMP</text>
</g>
<!-- story_user -->
<g id="node11" class="node">
<title>story_user</title>
<polygon fill="#dddddd" stroke="none" points="498.64,-1734 498.64,-1756 585.64,-1756 585.64,-1734 498.64,-1734"/>
<polygon fill="none" stroke="black" points="498.64,-1734 498.64,-1756 585.64,-1756 585.64,-1734 498.64,-1734"/>
<text text-anchor="start" x="514.02" y="-1739.7" font-family="Times,serif" font-size="14.00">story_user</text>
<polygon fill="none" stroke="black" points="498.64,-1712 498.64,-1734 585.64,-1734 585.64,-1712 498.64,-1712"/>
<text text-anchor="start" x="501.27" y="-1718.7" font-family="Times,serif" font-size="14.00">story_id:</text>
<text text-anchor="start" x="549.27" y="-1718.7" font-family="Helvetica,sans-Serif" font-style="oblique" font-size="10.00">BIGINT</text>
<polygon fill="none" stroke="black" points="498.64,-1690 498.64,-1712 585.64,-1712 585.64,-1690 498.64,-1690"/>
<text text-anchor="start" x="503.52" y="-1696.7" font-family="Times,serif" font-size="14.00">user_id:</text>
<text text-anchor="start" x="547.02" y="-1696.7" font-family="Helvetica,sans-Serif" font-style="oblique" font-size="10.00">BIGINT</text>
</g>
<!-- story_user&#45;&gt;stories -->
<g id="edge1" class="edge">
<title>story_user:story_id&#45;&gt;stories:id</title>
<path fill="none" stroke="#444444" stroke-dasharray="5,2" d="M587.14,-1723C1234.97,-1723 1397.31,-1801.19 2040.17,-1801.99"/>
<polygon fill="#444444" stroke="#444444" points="2049.64,-1805.5 2039.64,-1801.99 2049.65,-1798.5 2049.64,-1805.5"/>
</g>
<!-- users -->
<g id="node12" class="node">
<title>users</title>
<polygon fill="#dddddd" stroke="none" points="2032.64,-1633 2032.64,-1655 2195.64,-1655 2195.64,-1633 2032.64,-1633"/>
<polygon fill="none" stroke="black" points="2032.64,-1633 2032.64,-1655 2195.64,-1655 2195.64,-1633 2032.64,-1633"/>
<text text-anchor="start" x="2100.27" y="-1638.7" font-family="Times,serif" font-size="14.00">users</text>
<polygon fill="none" stroke="black" points="2032.64,-1611 2032.64,-1633 2195.64,-1633 2195.64,-1611 2032.64,-1611"/>
<text text-anchor="start" x="2090.14" y="-1617.7" font-family="Times,serif" font-size="14.00">id:</text>
<text text-anchor="start" x="2104.39" y="-1617.7" font-family="Helvetica,sans-Serif" font-style="oblique" font-size="10.00">BIGINT</text>
<polygon fill="none" stroke="black" points="2032.64,-1589 2032.64,-1611 2195.64,-1611 2195.64,-1589 2032.64,-1589"/>
<text text-anchor="start" x="2077.39" y="-1595.7" font-family="Times,serif" font-size="14.00">role:</text>
<text text-anchor="start" x="2102.14" y="-1595.7" font-family="Helvetica,sans-Serif" font-style="oblique" font-size="10.00">VARCHAR</text>
<polygon fill="none" stroke="black" points="2032.64,-1567 2032.64,-1589 2195.64,-1589 2195.64,-1567 2032.64,-1567"/>
<text text-anchor="start" x="2072.89" y="-1573.7" font-family="Times,serif" font-size="14.00">name:</text>
<text text-anchor="start" x="2106.64" y="-1573.7" font-family="Helvetica,sans-Serif" font-style="oblique" font-size="10.00">VARCHAR</text>
<polygon fill="none" stroke="black" points="2032.64,-1545 2032.64,-1567 2195.64,-1567 2195.64,-1545 2032.64,-1545"/>
<text text-anchor="start" x="2072.52" y="-1551.7" font-family="Times,serif" font-size="14.00">email:</text>
<text text-anchor="start" x="2107.02" y="-1551.7" font-family="Helvetica,sans-Serif" font-style="oblique" font-size="10.00">VARCHAR</text>
<polygon fill="none" stroke="black" points="2032.64,-1523 2032.64,-1545 2195.64,-1545 2195.64,-1523 2032.64,-1523"/>
<text text-anchor="start" x="2035.39" y="-1529.7" font-family="Times,serif" font-size="14.00">email_verified_at:</text>
<text text-anchor="start" x="2135.14" y="-1529.7" font-family="Helvetica,sans-Serif" font-style="oblique" font-size="10.00">TIMESTAMP</text>
<polygon fill="none" stroke="black" points="2032.64,-1501 2032.64,-1523 2195.64,-1523 2195.64,-1501 2032.64,-1501"/>
<text text-anchor="start" x="2062.39" y="-1507.7" font-family="Times,serif" font-size="14.00">password:</text>
<text text-anchor="start" x="2117.14" y="-1507.7" font-family="Helvetica,sans-Serif" font-style="oblique" font-size="10.00">VARCHAR</text>
<polygon fill="none" stroke="black" points="2032.64,-1479 2032.64,-1501 2195.64,-1501 2195.64,-1479 2032.64,-1479"/>
<text text-anchor="start" x="2041.39" y="-1485.7" font-family="Times,serif" font-size="14.00">remember_token:</text>
<text text-anchor="start" x="2138.14" y="-1485.7" font-family="Helvetica,sans-Serif" font-style="oblique" font-size="10.00">VARCHAR</text>
<polygon fill="none" stroke="black" points="2032.64,-1457 2032.64,-1479 2195.64,-1479 2195.64,-1457 2032.64,-1457"/>
<text text-anchor="start" x="2055.64" y="-1463.7" font-family="Times,serif" font-size="14.00">created_at:</text>
<text text-anchor="start" x="2114.89" y="-1463.7" font-family="Helvetica,sans-Serif" font-style="oblique" font-size="10.00">TIMESTAMP</text>
<polygon fill="none" stroke="black" points="2032.64,-1435 2032.64,-1457 2195.64,-1457 2195.64,-1435 2032.64,-1435"/>
<text text-anchor="start" x="2053.77" y="-1441.7" font-family="Times,serif" font-size="14.00">updated_at:</text>
<text text-anchor="start" x="2116.77" y="-1441.7" font-family="Helvetica,sans-Serif" font-style="oblique" font-size="10.00">TIMESTAMP</text>
</g>
<!-- story_user&#45;&gt;users -->
<g id="edge2" class="edge">
<title>story_user:user_id&#45;&gt;users:id</title>
<path fill="none" stroke="#444444" stroke-dasharray="5,2" d="M587.14,-1701C1226.59,-1701 1386.77,-1622.81 2021.3,-1622.01"/>
<polygon fill="#444444" stroke="#444444" points="2030.65,-1625.5 2020.64,-1622.01 2030.64,-1618.5 2030.65,-1625.5"/>
</g>
</g>
</svg>
